<svg id="visual" viewBox="0 0 1080 80" width="1080" height="80" xmlns="http://www.w3.org/2000/svg" xmlns:xlink="http://www.w3.org/1999/xlink" version="1.1"><rect x="0" y="0" width="1080" height="80" fill="#2b2a33"></rect><path d="M0 47L10.7 49C21.3 51 42.7 55 63.8 55C85 55 106 51 127.2 50.2C148.3 49.3 169.7 51.7 190.8 54C212 56.3 233 58.7 254.2 57C275.3 55.3 296.7 49.7 317.8 46.7C339 43.7 360 43.3 381.2 43.3C402.3 43.3 423.7 43.7 444.8 44.2C466 44.7 487 45.3 508.2 49.2C529.3 53 550.7 60 571.8 59.2C593 58.3 614 49.7 635.2 48.3C656.3 47 677.7 53 698.8 57.5C720 62 741 65 762.2 66.5C783.3 68 804.7 68 825.8 63.8C847 59.7 868 51.3 889.2 51.5C910.3 51.7 931.7 60.3 952.8 62C974 63.7 995 58.3 1016.2 55.8C1037.3 53.3 1058.7 53.7 1069.3 53.8L1080 54L1080 81L1069.3 81C1058.7 81 1037.3 81 1016.2 81C995 81 974 81 952.8 81C931.7 81 910.3 81 889.2 81C868 81 847 81 825.8 81C804.7 81 783.3 81 762.2 81C741 81 720 81 698.8 81C677.7 81 656.3 81 635.2 81C614 81 593 81 571.8 81C550.7 81 529.3 81 508.2 81C487 81 466 81 444.8 81C423.7 81 402.3 81 381.2 81C360 81 339 81 317.8 81C296.7 81 275.3 81 254.2 81C233 81 212 81 190.8 81C169.7 81 148.3 81 127.2 81C106 81 85 81 63.8 81C42.7 81 21.3 81 10.7 81L0 81Z" fill="#f7f9fc" stroke-linecap="round" stroke-linejoin="miter"></path></svg>